Coordinates
version=1
nRows=22
nColumns=24
inDegrees=yes

Units are S.I. units (second, meters, Newtons, ...)
Angles are in degrees.

endheader
time	pelvis_tilt	pelvis_list	pelvis_rotation	pelvis_tx	pelvis_ty	pelvis_tz	hip_flexion_r	hip_adduction_r	hip_rotation_r	knee_angle_r	ankle_angle_r	subtalar_angle_r	mtp_angle_r	hip_flexion_l	hip_adduction_l	hip_rotation_l	knee_angle_l	ankle_angle_l	subtalar_angle_l	mtp_angle_l	lumbar_extension	lumbar_bending	lumbar_rotation
      4.07500000	     -9.44439678	     -2.39456598	     -2.83834631	     -1.32461749	     -0.00396578	     -0.66634535	      4.06468235	      5.74523305	     -7.69437984	     -6.57451761	      5.08566924	     -6.80234468	      3.95488116	     34.09751008	     -8.11037471	    -18.40219592	    -50.17150858	     -2.29570472	    -12.81595537	      6.37832175	      5.97705843	      4.93960913	      1.14146063
      4.08000000	     -9.50423274	     -2.32689358	     -2.90264680	     -1.31941986	     -0.00445232	     -0.66630783	      3.73453018	      5.65881888	     -7.81053633	     -6.48172630	      5.33734038	     -6.49327608	      4.18764962	     34.34198225	     -8.00716027	    -18.80492009	    -48.62885029	     -1.75490962	    -12.64792856	      5.12162945	      5.96652487	      4.84064046	      1.29369906
      4.08500000	     -9.71816899	     -2.30567077	     -2.99921247	     -1.31427640	     -0.00518351	     -0.66619824	      3.57820234	      5.64791410	     -7.74784038	     -6.40250115	      5.55679106	     -6.42804225	      4.25295530	     34.73627040	     -7.98450965	    -19.20480835	    -47.00905199	     -1.47454225	    -12.56030517	      4.92413770	      6.11193291	      4.79697832	      1.50551513
      4.09000000	     -9.79768538	     -2.25996061	     -3.06184926	     -1.30907926	     -0.00576101	     -0.66618991	      3.27657089	      5.58599025	     -7.87411860	     -6.32292169	      5.80509435	     -6.13203843	      4.43400999	     34.93991473	     -7.89872405	    -19.63635737	    -45.33078988	     -0.99416191	    -12.27364743	      3.87456546	      6.11650775	      4.71592427	      1.65733720
      4.09500000	    -10.02751877	     -2.25939591	     -3.10550727	     -1.30392499	     -0.00656182	     -0.66616913	      3.13962174	      5.59418630	     -7.86894374	     -6.24889362	      5.99483220	     -6.10870554	      4.46953236	     35.29622561	     -7.84929818	    -20.00259845	    -43.57088639	     -0.78432928	    -12.05136480	      3.77118451	      6.27939035	      4.68059748	      1.76485577
      4.10000000	    -10.18057138	     -2.24292325	     -3.24057063	     -1.29875714	     -0.00727346	     -0.66608863	      2.93752152	      5.57597474	     -7.88733977	     -6.20850408	      6.23177771	     -5.86961246	      4.54919538	     35.49896105	     -7.84314616	    -20.54634466	    -41.74277798	     -0.51848472	    -11.70557723	      3.49127343	      6.34783755	      4.64528836	      2.03468898
      4.10500000	    -10.38385276	     -2.25029064	     -3.22883180	     -1.29355761	     -0.00811041	     -0.66619337	      2.76758042	      5.58174767	     -7.95333687	     -6.13501539	      6.43806389	     -5.82449847	      4.58516484	     35.76022557	     -7.74004323	    -20.89098907	    -39.85111142	     -0.33331627	    -11.31209353	      3.38609989	      6.48715644	      4.60694404	      2.07590445
      4.11000000	    -10.50733240	     -2.23902693	     -3.34281721	     -1.28832723	     -0.00884158	     -0.66619729	      2.53054814	      5.55680200	     -8.01733008	     -6.10053597	      6.69728609	     -5.51677470	      4.68318461	     35.85092334	     -7.70293566	    -21.46498870	    -37.89338499	     -0.07783889	    -10.73758099	      3.24107092	      6.53019789	      4.57398403	      2.33080387
      4.11500000	    -10.65834029	     -2.24599537	     -3.36671252	     -1.28305440	     -0.00964200	     -0.66630562	      2.30820856	      5.55140845	     -8.12805261	     -6.04455541	      6.91718318	     -5.31949002	      4.77270140	     35.96262025	     -7.60513351	    -21.92052637	    -35.88948898	      0.10504245	    -10.10173844	      3.20297875	      6.61463159	      4.53778775	      2.43121438
      4.12000000	    -10.79400682	     -2.25555145	     -3.39688653	     -1.27778455	     -0.01043421	     -0.66643737	      2.07781101	      5.54366299	     -8.25614031	     -6.00468920	      7.12783809	     -5.09496392	      4.87499898	     36.02708239	     -7.50910969	    -22.42481833	    -33.85086105	      0.25227203	     -9.34075711	      3.29643542	      6.67757782	      4.50836619	      2.54891979
      4.12500000	    -10.91580818	     -2.27222194	     -3.41788046	     -1.27247721	     -0.01123373	     -0.66660654	      1.82996380	      5.53860386	     -8.39512438	     -5.96686638	      7.33048642	     -4.85805492	      4.98375697	     36.05221680	     -7.40316633	    -22.93697180	    -31.78924476	      0.36834899	     -8.48207401	      3.55050415	      6.72765076	      4.48190158	      2.64850187
      4.13000000	    -11.01460271	     -2.28713364	     -3.42403134	     -1.26713916	     -0.01203252	     -0.66683565	      1.55924075	      5.52355881	     -8.55999915	     -5.93743513	      7.53200907	     -4.60980144	      5.10066462	     36.03497096	     -7.27673169	    -23.46079156	    -29.71989707	      0.44738744	     -7.53265942	      4.01382402	      6.75200338	      4.45632379	      2.75856089
      4.13500000	    -11.06260635	     -2.28883934	     -3.45767164	     -1.26172396	     -0.01278039	     -0.66699953	      1.23465656	      5.49214232	     -8.73215796	     -5.91884523	      7.74369062	     -4.31062860	      5.23597092	     35.92456252	     -7.14262624	    -24.01112745	    -27.62994065	      0.46768716	     -6.53015283	      4.79304108	      6.73908201	      4.40100852	      2.88718200
      4.14000000	    -11.05189831	     -2.25274516	     -3.39832405	     -1.25624787	     -0.01343795	     -0.66733621	      0.82494297	      5.40020699	     -8.95499661	     -5.85809175	      7.90996457	     -4.01735749	      5.54144782	     35.71483960	     -6.87620294	    -24.45701749	    -25.40289469	     -0.09442596	     -5.89982127	      7.10484088	      6.66814018	      4.29884759	      2.89729459
      4.14500000	    -11.17056161	     -2.22778314	     -3.44349071	     -1.25078269	     -0.01422599	     -0.66758902	      0.59181553	      5.33009239	     -9.02907968	     -5.87561020	      8.09688747	     -3.76236937	      5.57747327	     35.67975704	     -6.70339589	    -25.01333785	    -23.42187670	      0.01635589	     -4.78381227	      7.63220061	      6.73291386	      4.23528806	      3.03307054
      4.15000000	    -11.09854824	     -2.12929428	     -3.36829256	     -1.24527414	     -0.01475068	     -0.66799739	      0.14274185	      5.15239086	     -9.27438108	     -5.87160660	      8.29566814	     -3.38567317	      5.72601160	     35.39654050	     -6.34162479	    -25.40426087	    -21.30005238	     -0.49236869	     -4.12119360	      9.88167391	      6.59890290	      4.06331529	      3.03533143
      4.15500000	    -11.14788990	     -1.98447788	     -3.39523675	     -1.23977341	     -0.01533219	     -0.66833873	     -0.13792923	      4.92644937	     -9.32982814	     -5.93472380	      8.48017151	     -3.07041958	      5.74871260	     35.28235954	     -6.01364951	    -25.92420934	    -19.43901436	     -0.45840229	     -3.15314140	     10.34846161	      6.59475115	      3.86872377	      3.17398015
      4.16000000	    -11.06091018	     -1.81684889	     -3.35529555	     -1.23427919	     -0.01577844	     -0.66872634	     -0.54625672	      4.66161078	     -9.55519163	     -6.03510232	      8.72399485	     -2.64511910	      5.77671512	     35.03528258	     -5.60937086	    -26.23687299	    -17.65626457	     -0.49279440	     -2.34547608	     11.21228019	      6.44312053	      3.61720002	      3.22441137
      4.16500000	    -11.04712243	     -1.66221996	     -3.29577905	     -1.22885657	     -0.01631242	     -0.66917096	     -0.85032455	      4.40545763	     -9.72662771	     -6.18165799	      8.96308789	     -2.23535066	      5.83166464	     34.92085211	     -5.22025153	    -26.42885277	    -16.03937019	     -0.63205549	     -1.67688752	     12.25249790	      6.35259073	      3.38487386	      3.23536142
      4.17000000	    -11.06111592	     -1.51261260	     -3.22618823	     -1.22335624	     -0.01687263	     -0.66962697	     -1.11825957	      4.16361090	     -9.90613270	     -6.34077437	      9.11533313	     -1.97937408	      5.82375828	     34.86844643	     -4.83644269	    -26.52274306	    -14.60471064	     -0.68315814	     -1.12917525	     12.81357112	      6.31071614	      3.15239717	      3.26085203
      4.17500000	    -11.05993989	     -1.37112246	     -3.15421696	     -1.21787241	     -0.01746245	     -0.67010984	     -1.38149243	      3.92174347	    -10.03761322	     -6.54974302	      9.30555523	     -1.70291555	      5.79078956	     34.82893765	     -4.46830331	    -26.45650255	    -13.35068623	     -0.69433236	     -0.65432703	     13.20023647	      6.24427990	      2.92582223	      3.26172440
      4.18000000	    -11.05643440	     -1.22917326	     -3.09408106	     -1.21233541	     -0.01807988	     -0.67057372	     -1.63378152	      3.67927577	    -10.13547152	     -6.79214332	      9.48855324	     -1.46907121	      5.72467893	     34.80449559	     -4.11937016	    -26.28388675	    -12.27015689	     -0.69002794	     -0.28435061	     13.42080402	      6.18018951	      2.69480351	      3.26944397
